<svg width="195" height="195" viewBox="0 0 195 195" fill="none" xmlns="http://www.w3.org/2000/svg">
<path d="M51.4737 115.398L44.7221 115.813C44.6067 115.236 44.3586 114.717 43.9777 114.255C43.5969 113.782 43.0948 113.407 42.4716 113.13C41.8599 112.842 41.127 112.697 40.273 112.697C39.1304 112.697 38.1667 112.94 37.3819 113.424C36.5971 113.898 36.2047 114.532 36.2047 115.329C36.2047 115.963 36.4586 116.5 36.9664 116.939C37.4743 117.377 38.3456 117.729 39.5805 117.995L44.3932 118.964C46.9784 119.495 48.9058 120.349 50.1753 121.526C51.4449 122.703 52.0796 124.25 52.0796 126.166C52.0796 127.909 51.5661 129.438 50.5389 130.753C49.5233 132.069 48.1268 133.096 46.3494 133.835C44.5836 134.562 42.5466 134.926 40.2384 134.926C36.7183 134.926 33.9138 134.193 31.8248 132.727C29.7474 131.25 28.5298 129.242 28.1721 126.703L35.4257 126.322C35.645 127.395 36.1759 128.214 37.0184 128.78C37.8609 129.334 38.94 129.611 40.2557 129.611C41.5483 129.611 42.587 129.363 43.3718 128.866C44.1681 128.359 44.5721 127.707 44.5836 126.91C44.5721 126.241 44.2893 125.693 43.7354 125.266C43.1814 124.827 42.3273 124.492 41.1732 124.262L36.5683 123.344C33.9715 122.825 32.0384 121.924 30.7688 120.643C29.5108 119.362 28.8818 117.729 28.8818 115.744C28.8818 114.036 29.3435 112.565 30.2668 111.33C31.2016 110.095 32.5115 109.143 34.1966 108.473C35.8931 107.804 37.8782 107.469 40.1518 107.469C43.5103 107.469 46.1532 108.179 48.0806 109.598C50.0195 111.018 51.1506 112.951 51.4737 115.398ZM53.0673 134.406V107.815H60.4421V134.406H53.0673ZM56.772 104.388C55.6756 104.388 54.735 104.024 53.9502 103.297C53.1769 102.558 52.7903 101.675 52.7903 100.648C52.7903 99.6326 53.1769 98.7613 53.9502 98.0342C54.735 97.2955 55.6756 96.9262 56.772 96.9262C57.8684 96.9262 58.8032 97.2955 59.5765 98.0342C60.3613 98.7613 60.7537 99.6326 60.7537 100.648C60.7537 101.675 60.3613 102.558 59.5765 103.297C58.8032 104.024 57.8684 104.388 56.772 104.388ZM74.6733 144.932C72.2842 144.932 70.2357 144.603 68.5276 143.945C66.831 143.299 65.4807 142.416 64.4766 141.296C63.4725 140.177 62.8204 138.919 62.5204 137.522L69.3412 136.605C69.549 137.136 69.8779 137.632 70.328 138.094C70.7781 138.555 71.3725 138.925 72.1111 139.202C72.8613 139.49 73.773 139.634 74.8464 139.634C76.4506 139.634 77.7721 139.242 78.8108 138.457C79.861 137.684 80.3861 136.386 80.3861 134.562V129.697H80.0745C79.7514 130.436 79.2666 131.134 78.6203 131.792C77.974 132.45 77.1431 132.987 76.1274 133.402C75.1118 133.818 73.9 134.025 72.492 134.025C70.4953 134.025 68.6776 133.564 67.0388 132.64C65.4114 131.706 64.1131 130.28 63.1436 128.364C62.1857 126.437 61.7067 124.002 61.7067 121.059C61.7067 118.047 62.1972 115.531 63.1782 113.511C64.1592 111.491 65.4634 109.979 67.0907 108.975C68.7295 107.971 70.5242 107.469 72.4747 107.469C73.9635 107.469 75.2099 107.723 76.214 108.231C77.2181 108.727 78.026 109.35 78.6377 110.1C79.2609 110.839 79.7398 111.566 80.0745 112.282H80.3515V107.815H87.6744V134.666C87.6744 136.928 87.1204 138.821 86.0125 140.344C84.9045 141.868 83.3695 143.01 81.4075 143.772C79.4571 144.545 77.2123 144.932 74.6733 144.932ZM74.8291 128.486C76.0178 128.486 77.0219 128.191 77.8413 127.603C78.6723 127.003 79.307 126.149 79.7456 125.041C80.1957 123.921 80.4208 122.582 80.4208 121.024C80.4208 119.466 80.2015 118.116 79.7629 116.973C79.3244 115.819 78.6896 114.925 77.8586 114.29C77.0277 113.655 76.0178 113.338 74.8291 113.338C73.6172 113.338 72.5958 113.667 71.7649 114.325C70.9339 114.971 70.3049 115.871 69.8779 117.025C69.4509 118.179 69.2373 119.512 69.2373 121.024C69.2373 122.559 69.4509 123.886 69.8779 125.006C70.3165 126.114 70.9454 126.974 71.7649 127.585C72.5958 128.186 73.6172 128.486 74.8291 128.486ZM97.2617 119.033V134.406H89.8869V107.815H96.9154V112.507H97.2271C97.8157 110.96 98.8024 109.737 100.187 108.837C101.572 107.925 103.252 107.469 105.225 107.469C107.072 107.469 108.682 107.873 110.055 108.681C111.428 109.489 112.496 110.643 113.258 112.143C114.019 113.632 114.4 115.409 114.4 117.475V134.406H107.026V118.791C107.037 117.164 106.622 115.894 105.779 114.982C104.937 114.059 103.777 113.597 102.299 113.597C101.307 113.597 100.43 113.811 99.668 114.238C98.9178 114.665 98.3292 115.288 97.9022 116.108C97.4867 116.916 97.2732 117.891 97.2617 119.033ZM116.557 134.406V107.815H123.931V134.406H116.557ZM120.261 104.388C119.165 104.388 118.224 104.024 117.439 103.297C116.666 102.558 116.28 101.675 116.28 100.648C116.28 99.6326 116.666 98.7613 117.439 98.0342C118.224 97.2955 119.165 96.9262 120.261 96.9262C121.358 96.9262 122.293 97.2955 123.066 98.0342C123.851 98.7613 124.243 99.6326 124.243 100.648C124.243 101.675 123.851 102.558 123.066 103.297C122.293 104.024 121.358 104.388 120.261 104.388ZM140.482 107.815V113.355H124.071V107.815H140.482ZM127.827 134.406V105.894C127.827 103.966 128.202 102.368 128.953 101.098C129.714 99.8288 130.753 98.8767 132.069 98.2419C133.384 97.6072 134.879 97.2898 136.553 97.2898C137.684 97.2898 138.716 97.3763 139.651 97.5494C140.598 97.7226 141.302 97.8784 141.763 98.0169L140.448 103.557C140.159 103.464 139.801 103.378 139.374 103.297C138.959 103.216 138.532 103.176 138.093 103.176C137.008 103.176 136.252 103.43 135.825 103.938C135.398 104.434 135.185 105.132 135.185 106.032V134.406H127.827ZM145.884 144.378C144.95 144.378 144.072 144.303 143.253 144.153C142.445 144.014 141.776 143.835 141.245 143.616L142.907 138.111C143.772 138.376 144.551 138.521 145.244 138.544C145.948 138.567 146.554 138.405 147.062 138.059C147.581 137.713 148.002 137.124 148.325 136.293L148.758 135.168L139.219 107.815H146.975L152.48 127.343H152.757L158.314 107.815H166.122L155.787 137.28C155.291 138.711 154.615 139.958 153.761 141.019C152.919 142.093 151.851 142.918 150.559 143.495C149.266 144.084 147.708 144.378 145.884 144.378Z" fill="white"/>
<g clip-path="url(#clip0_2719_85)">
<path d="M93.4375 58.9062C95.6719 58.9062 97.5 60.7344 97.5 62.9688C97.5 65.2031 95.6719 67.0312 93.4375 67.0312C91.2031 67.0312 89.375 65.2031 89.375 62.9688C89.375 60.7344 91.2031 58.9062 93.4375 58.9062ZM111.719 73.125H99.5312V99.5312H95.4688V87.3438H91.4062V99.5312H87.3438V73.125H75.1562V69.0625H111.719V73.125Z" fill="#FF7A7A"/>
</g>
<defs>
<clipPath id="clip0_2719_85">
<rect width="48.75" height="48.75" fill="white" transform="translate(69.0625 54.8438)"/>
</clipPath>
</defs>
</svg>
