<svg width="20" height="20" viewBox="0 0 20 20" fill="none" xmlns="http://www.w3.org/2000/svg">
<g clip-path="url(#clip0_2724_165)">
<path d="M9.62143 11.2569C10.9337 11.2569 11.9851 10.1975 11.9851 8.88525L11.9931 4.14201C11.9931 2.82971 10.9337 1.77039 9.62143 1.77039C8.30913 1.77039 7.24981 2.82971 7.24981 4.14201V8.88525C7.24981 10.1975 8.30913 11.2569 9.62143 11.2569ZM13.8113 8.88525C13.8113 11.2569 11.8033 12.917 9.62143 12.917C7.43954 12.917 5.43157 11.2569 5.43157 8.88525H4.08765C4.08765 11.581 6.23792 13.8103 8.83089 14.1977V16.7907H10.412V14.1977C13.0049 13.8182 15.1552 11.5889 15.1552 8.88525H13.8113Z" fill="black"/>
</g>
<defs>
<clipPath id="clip0_2724_165">
<rect width="18.973" height="18.973" fill="white" transform="translate(0.135254 0.189209)"/>
</clipPath>
</defs>
</svg>
